PathFileType	4	(X/Y/Z)	c:/Users/goper/Files/vsCode/490R/osim_files/A01/A01_Fast_04.trc
DataRate	CameraRate	NumFrames	NumMarkers	Units                	OrigDataRate	OrigDataStartFrame	OrigNumFrames
120.00	120.00	4	36	mm	120.0	566	1131
                Frame#	Time	Mobility_markerset:LPSIS			Mobility_markerset:LASIS			Mobility_markerset:LTH1			Mobility_markerset:LTH2			Mobility_markerset:LTH3			Mobility_markerset:LTH4			Mobility_markerset:LLFE			Mobility_markerset:LMFE			Mobility_markerset:LSH1			Mobility_markerset:LSH2			Mobility_markerset:LSH3			Mobility_markerset:LSH4			Mobility_markerset:LLMAL			Mobility_markerset:LMMAL			Mobility_markerset:LCAL			Mobility_markerset:LMTP5			Mobility_markerset:LTOE			Mobility_markerset:LMTP1			Mobility_markerset:RPSIS			Mobility_markerset:RASIS			Mobility_markerset:RTH1			Mobility_markerset:RTH2			Mobility_markerset:RTH3			Mobility_markerset:RTH4			Mobility_markerset:RLFE			Mobility_markerset:RMFE			Mobility_markerset:RSH1			Mobility_markerset:RSH2			Mobility_markerset:RSH3			Mobility_markerset:RSH4			Mobility_markerset:RLMAL			Mobility_markerset:RMMAL			Mobility_markerset:RCAL			Mobility_markerset:RMTP1			Mobility_markerset:RTOE			Mobility_markerset:RMTP5		
		X1	Y1	Z1	X2	Y2	Z2	X3	Y3	Z3	X4	Y4	Z4	X5	Y5	Z5	X6	Y6	Z6	X7	Y7	Z7	X8	Y8	Z8	X9	Y9	Z9	X10	Y10	Z10	X11	Y11	Z11	X12	Y12	Z12	X13	Y13	Z13	X14	Y14	Z14	X15	Y15	Z15	X16	Y16	Z16	X17	Y17	Z17	X18	Y18	Z18	X19	Y19	Z19	X20	Y20	Z20	X21	Y21	Z21	X22	Y22	Z22	X23	Y23	Z23	X24	Y24	Z24	X25	Y25	Z25	X26	Y26	Z26	X27	Y27	Z27	X28	Y28	Z28	X29	Y29	Z29	X30	Y30	Z30	X31	Y31	Z31	X32	Y32	Z32	X33	Y33	Z33	X34	Y34	Z34	X35	Y35	Z35	X36	Y36	Z36

566	4.70833	-900.47119	1036.50244	380.00763	-1108.26733	983.36786	531.65576	-920.06665	677.69684	546.26910	-917.81836	631.05835	536.48181	-979.47723	667.97253	552.25098	-969.76801	624.26617	538.02936	-929.23480	509.45880	500.05972	-947.92212	516.75079	362.94354	-826.20422	377.19601	480.83240	-806.09052	334.20914	480.25723	-880.40839	346.67734	477.53293	-853.20892	309.49377	476.65305	-715.78412	105.99516	449.47781	-703.69019	109.43945	359.94342	-630.47107	94.92863	407.83865	-842.74786	33.95137	459.56119	-867.02130	54.98984	390.22787	0.00000	0.00000	0.00000	-922.62213	1023.31573	281.26355	-1156.55542	953.51575	276.21939	-1146.79102	642.91693	180.49377	-1169.45825	606.70837	189.74078	-1201.02515	671.66138	192.37885	-1214.66882	631.53766	198.04141	-1266.53455	511.51419	241.19830	-1234.41992	517.41736	373.55820	-1271.33606	298.41895	235.16364	-1296.44678	259.09857	237.73523	-1326.80457	325.03912	231.37582	-1344.51978	283.17151	233.72815	-1404.62988	111.58550	270.84238	-1418.50488	146.25851	352.93359	-1380.01404	60.92218	327.30957	-1561.15234	167.89471	341.66116	-1574.35010	198.21683	293.29117	-1546.15015	133.06760	234.10312
567	4.71667	-914.43500	1034.11011	379.31427	-1121.04089	980.39447	532.02625	-930.50635	675.53766	545.93555	-927.74384	628.93939	536.18146	-989.72778	665.21399	552.00757	-979.62097	621.60223	537.74451	-937.79968	507.04214	499.91888	-955.85876	514.12958	362.25711	-832.43640	376.52060	480.77667	-811.59338	333.96677	480.21432	-885.96991	345.13116	477.47021	-858.23297	308.42282	476.57162	-717.20721	107.18234	449.70331	-704.68024	110.45766	360.01749	-631.62811	97.48123	407.87305	-842.90375	33.81167	459.55899	-867.36829	54.94867	390.25165	0.00000	0.00000	0.00000	-936.65631	1021.24774	280.37131	-1169.91260	951.27850	277.28336	-1164.29175	642.77795	180.99344	-1187.45361	606.95569	190.56195	-1218.03650	672.34613	193.13770	-1231.75305	631.90686	199.36707	-1283.75500	511.60632	242.80792	-1251.40552	518.46771	375.32108	-1285.49927	297.82388	237.61726	-1310.31299	258.15427	240.64212	-1341.64563	323.47217	233.57155	-1358.77820	281.45575	236.03716	-1416.94788	109.52081	273.73355	-1431.38892	143.96326	355.88507	-1391.77966	59.13095	330.19241	-1574.45349	163.76991	344.10190	-1587.69592	194.34395	295.98007	-1558.07239	129.99779	236.75412
568	4.72500	-928.63538	1031.58643	378.89429	-1134.05969	977.40717	532.16107	-941.37402	673.22168	545.62677	-938.01941	626.64612	535.92834	-1000.74286	661.73999	551.86322	-989.78333	618.70837	537.50269	-946.87262	504.58664	499.89401	-966.20947	511.09296	363.13287	-839.19391	375.98483	480.69989	-817.48206	333.77625	480.19534	-892.23315	343.48679	477.46713	-863.59088	307.31729	476.63049	-718.73840	108.72486	449.67288	-706.30682	111.99692	360.00833	-633.13879	100.47987	407.85370	-843.10315	33.59610	459.58173	-867.88281	54.90094	390.30304	0.00000	0.00000	0.00000	-950.74066	1019.18103	279.84674	-1184.92688	949.77228	278.12677	-1181.85046	642.85565	181.34056	-1205.59680	607.43579	190.97853	-1235.02136	673.41296	194.02757	-1249.73083	633.65045	199.93312	-1301.56555	511.51077	245.05736	-1270.65576	519.88989	376.43225	-1299.67932	296.64801	240.15822	-1323.31372	256.92029	243.17871	-1355.84656	321.57224	235.90927	-1372.17041	279.24509	238.43643	-1427.02759	106.89494	276.41858	-1441.94751	140.37848	358.65460	-1401.22986	56.19012	332.74216	-1585.88428	157.83298	346.87524	-1599.06665	188.87218	299.36795	-1568.16125	125.69729	239.60576
569	4.73333	-942.91418	1028.88208	378.77997	-1147.30212	974.24780	531.86487	-952.78607	670.79755	545.43604	-949.03314	624.11621	535.65692	-1011.90411	658.74170	551.59479	-1000.65015	615.71277	537.23657	-956.73676	501.73672	499.76797	-975.54559	507.82974	362.22537	-846.50397	375.45618	480.56955	-823.56567	333.62674	480.05093	-898.84863	341.84518	477.31384	-869.44690	306.28229	476.54678	-720.42230	110.48042	449.79910	-708.13721	114.18916	359.74869	-634.86627	103.93979	407.70151	-843.29291	33.37378	459.56982	-868.01190	54.30135	390.40289	0.00000	0.00000	0.00000	-964.74536	1017.09583	279.62082	-1199.07605	948.54535	278.60236	-1199.34265	643.13428	181.49727	-1223.57336	608.10895	191.32436	-1251.76672	674.67413	194.62784	-1267.35303	635.06982	200.75017	-1319.81714	511.33286	247.49565	-1290.53577	520.66199	376.72394	-1313.36804	295.23770	242.29900	-1335.44629	255.40471	245.02875	-1369.61658	319.26584	238.38593	-1384.74841	276.63675	241.00320	-1435.48669	103.35107	279.15576	-1450.35278	135.83443	361.31323	-1408.75574	52.45165	335.02081	-1593.87500	150.90392	351.11743	-1608.51050	182.48289	303.35193	-1576.41638	120.67238	242.86754
